<svg width="192" height="115" viewBox="0 0 192 115" fill="none" xmlns="http://www.w3.org/2000/svg">
<path d="M4.21898 3.12019L4.14649 3.61491L4.21897 3.12019L3.44889 3.00736L4.21897 2.89453L4.14649 2.39981L4.21898 2.89453C4.51138 2.85168 4.76411 2.66802 4.89516 2.40315L5.52631 1.1275L6.15747 2.40315L6.60561 2.18142L6.15747 2.40315C6.28852 2.66802 6.54125 2.85168 6.83365 2.89453L6.90614 2.39981L6.83366 2.89453L7.60373 3.00736L6.83366 3.12019L6.90614 3.61491L6.83365 3.12019C6.54125 3.16304 6.28852 3.3467 6.15747 3.61157L5.52631 4.88722L4.89516 3.61157L4.44702 3.8333L4.89516 3.61157C4.76411 3.3467 4.51137 3.16304 4.21898 3.12019Z" fill="#C4C4C4" stroke="white"/>
<path d="M24.2716 3.12019L24.1991 3.61491L24.2716 3.12019L23.5015 3.00736L24.2716 2.89453L24.1991 2.39981L24.2716 2.89453C24.564 2.85168 24.8168 2.66802 24.9478 2.40315L25.579 1.1275L26.2101 2.40315L26.6583 2.18142L26.2101 2.40315C26.3412 2.66802 26.5939 2.85168 26.8863 2.89453L26.9588 2.39981L26.8863 2.89453L27.6564 3.00736L26.8863 3.12019L26.9588 3.61491L26.8863 3.12019C26.5939 3.16304 26.3412 3.3467 26.2101 3.61157L25.579 4.88722L24.9478 3.61157L24.4997 3.8333L24.9478 3.61157C24.8168 3.3467 24.564 3.16304 24.2716 3.12019Z" fill="#C4C4C4" stroke="white"/>
<path d="M44.3243 3.12019L44.2518 3.61491L44.3243 3.12019L43.5542 3.00736L44.3243 2.89453L44.2518 2.39981L44.3243 2.89453C44.6167 2.85168 44.8694 2.66802 45.0004 2.40315L45.6316 1.1275L46.2628 2.40315L46.7109 2.18142L46.2628 2.40315C46.3938 2.66802 46.6465 2.85168 46.9389 2.89453L47.0114 2.39981L46.9389 2.89453L47.709 3.00736L46.9389 3.12019L47.0114 3.61491L46.9389 3.12019C46.6465 3.16304 46.3938 3.3467 46.2628 3.61157L45.6316 4.88722L45.0004 3.61157L44.5523 3.8333L45.0004 3.61157C44.8694 3.3467 44.6167 3.16304 44.3243 3.12019Z" fill="#C4C4C4" stroke="white"/>
<path d="M64.3769 3.12019L64.3044 3.61491L64.3769 3.12019L63.6068 3.00736L64.3769 2.89453L64.3044 2.39981L64.3769 2.89453C64.6693 2.85168 64.922 2.66802 65.0531 2.40315L65.6842 1.1275L66.3154 2.40315L66.7635 2.18142L66.3154 2.40315C66.4464 2.66802 66.6992 2.85168 66.9916 2.89453L67.064 2.39981L66.9916 2.89453L67.7616 3.00736L66.9916 3.12019L67.064 3.61491L66.9916 3.12019C66.6992 3.16304 66.4464 3.3467 66.3154 3.61157L65.6842 4.88722L65.0531 3.61157L64.6049 3.8333L65.0531 3.61157C64.922 3.3467 64.6693 3.16304 64.3769 3.12019Z" fill="#C4C4C4" stroke="white"/>
<path d="M84.4295 3.12019L84.357 3.61491L84.4295 3.12019L83.6594 3.00736L84.4295 2.89453L84.357 2.39981L84.4295 2.89453C84.7219 2.85168 84.9746 2.66802 85.1057 2.40315L85.7368 1.1275L86.368 2.40315L86.8161 2.18142L86.368 2.40315C86.499 2.66802 86.7518 2.85168 87.0442 2.89453L87.1167 2.39981L87.0442 2.89453L87.8142 3.00736L87.0442 3.12019L87.1167 3.61491L87.0442 3.12019C86.7518 3.16304 86.499 3.3467 86.368 3.61157L85.7368 4.88722L85.1057 3.61157L84.6575 3.8333L85.1057 3.61157C84.9746 3.3467 84.7219 3.16304 84.4295 3.12019Z" fill="#C4C4C4" stroke="white"/>
<path d="M104.482 3.12019L104.41 3.61491L104.482 3.12019L103.712 3.00736L104.482 2.89453L104.41 2.39981L104.482 2.89453C104.774 2.85168 105.027 2.66802 105.158 2.40315L105.789 1.1275L106.421 2.40315L106.869 2.18142L106.421 2.40315C106.552 2.66802 106.804 2.85168 107.097 2.89453L107.169 2.39981L107.097 2.89453L107.867 3.00736L107.097 3.12019L107.169 3.61491L107.097 3.12019C106.804 3.16304 106.552 3.3467 106.421 3.61157L105.789 4.88722L105.158 3.61157L104.71 3.8333L105.158 3.61157C105.027 3.3467 104.774 3.16304 104.482 3.12019Z" fill="#C4C4C4" stroke="white"/>
<path d="M124.535 3.12019L124.462 3.61491L124.535 3.12019L123.765 3.00736L124.535 2.89453L124.462 2.39981L124.535 2.89453C124.827 2.85168 125.08 2.66802 125.211 2.40315L125.842 1.1275L126.473 2.40315L126.921 2.18142L126.473 2.40315C126.604 2.66802 126.857 2.85168 127.149 2.89453L127.222 2.39981L127.149 2.89453L127.919 3.00736L127.149 3.12019L127.222 3.61491L127.149 3.12019C126.857 3.16304 126.604 3.3467 126.473 3.61157L125.842 4.88722L125.211 3.61157L124.763 3.8333L125.211 3.61157C125.08 3.3467 124.827 3.16304 124.535 3.12019Z" fill="#C4C4C4" stroke="white"/>
<path d="M144.587 3.12019L144.515 3.61491L144.587 3.12019L143.817 3.00736L144.587 2.89453L144.515 2.39981L144.587 2.89453C144.88 2.85168 145.132 2.66802 145.264 2.40315L145.895 1.1275L146.526 2.40315L146.974 2.18142L146.526 2.40315C146.657 2.66802 146.91 2.85168 147.202 2.89453L147.274 2.39981L147.202 2.89453L147.972 3.00736L147.202 3.12019L147.274 3.61491L147.202 3.12019C146.91 3.16304 146.657 3.3467 146.526 3.61157L145.895 4.88722L145.264 3.61157L144.815 3.8333L145.264 3.61157C145.132 3.3467 144.88 3.16304 144.587 3.12019Z" fill="#C4C4C4" stroke="white"/>
<path d="M164.64 3.12019L164.567 3.61491L164.64 3.12019L163.87 3.00736L164.64 2.89453L164.567 2.39981L164.64 2.89453C164.932 2.85168 165.185 2.66802 165.316 2.40315L165.947 1.1275L166.578 2.40315L167.027 2.18142L166.578 2.40315C166.709 2.66802 166.962 2.85168 167.255 2.89453L167.327 2.39981L167.255 2.89453L168.025 3.00736L167.255 3.12019L167.327 3.61491L167.255 3.12019C166.962 3.16304 166.709 3.3467 166.578 3.61157L165.947 4.88722L165.316 3.61157L164.868 3.8333L165.316 3.61157C165.185 3.3467 164.932 3.16304 164.64 3.12019Z" fill="#C4C4C4" stroke="white"/>
<path d="M184.693 3.12019L184.62 3.61491L184.693 3.12019L183.922 3.00736L184.693 2.89453L184.62 2.39981L184.693 2.89453C184.985 2.85168 185.238 2.66802 185.369 2.40315L186 1.1275L186.631 2.40315L187.079 2.18142L186.631 2.40315C186.762 2.66802 187.015 2.85168 187.307 2.89453L187.38 2.39981L187.307 2.89453L188.077 3.00736L187.307 3.12019L187.38 3.61491L187.307 3.12019C187.015 3.16304 186.762 3.3467 186.631 3.61157L186 4.88722L185.369 3.61157L184.921 3.8333L185.369 3.61157C185.238 3.3467 184.985 3.16304 184.693 3.12019Z" fill="#C4C4C4" stroke="white"/>
<path d="M4.21898 15.1348L4.14649 15.6296L4.21897 15.1348L3.44889 15.022L4.21897 14.9092L4.14649 14.4145L4.21898 14.9092C4.51138 14.8663 4.76411 14.6827 4.89516 14.4178L5.52631 13.1421L6.15747 14.4178L6.60561 14.1961L6.15747 14.4178C6.28852 14.6827 6.54125 14.8663 6.83365 14.9092L6.90614 14.4145L6.83366 14.9092L7.60373 15.022L6.83366 15.1348L6.90614 15.6296L6.83365 15.1348C6.54125 15.1777 6.28852 15.3613 6.15747 15.6262L5.52631 16.9019L4.89516 15.6262L4.44702 15.848L4.89516 15.6262C4.76411 15.3613 4.51137 15.1777 4.21898 15.1348Z" fill="#C4C4C4" stroke="white"/>
<path d="M24.2716 15.1348L24.1991 15.6296L24.2716 15.1348L23.5015 15.022L24.2716 14.9092L24.1991 14.4145L24.2716 14.9092C24.564 14.8663 24.8168 14.6827 24.9478 14.4178L25.579 13.1421L26.2101 14.4178L26.6583 14.1961L26.2101 14.4178C26.3412 14.6827 26.5939 14.8663 26.8863 14.9092L26.9588 14.4145L26.8863 14.9092L27.6564 15.022L26.8863 15.1348L26.9588 15.6296L26.8863 15.1348C26.5939 15.1777 26.3412 15.3613 26.2101 15.6262L25.579 16.9019L24.9478 15.6262L24.4997 15.848L24.9478 15.6262C24.8168 15.3613 24.564 15.1777 24.2716 15.1348Z" fill="#C4C4C4" stroke="white"/>
<path d="M44.3243 15.1348L44.2518 15.6296L44.3243 15.1348L43.5542 15.022L44.3243 14.9092L44.2518 14.4145L44.3243 14.9092C44.6167 14.8663 44.8694 14.6827 45.0004 14.4178L45.6316 13.1421L46.2628 14.4178L46.7109 14.1961L46.2628 14.4178C46.3938 14.6827 46.6465 14.8663 46.9389 14.9092L47.0114 14.4145L46.9389 14.9092L47.709 15.022L46.9389 15.1348L47.0114 15.6296L46.9389 15.1348C46.6465 15.1777 46.3938 15.3613 46.2628 15.6262L45.6316 16.9019L45.0004 15.6262L44.5523 15.848L45.0004 15.6262C44.8694 15.3613 44.6167 15.1777 44.3243 15.1348Z" fill="#C4C4C4" stroke="white"/>
<path d="M64.3769 15.1348L64.3044 15.6296L64.3769 15.1348L63.6068 15.022L64.3769 14.9092L64.3044 14.4145L64.3769 14.9092C64.6693 14.8663 64.922 14.6827 65.0531 14.4178L65.6842 13.1421L66.3154 14.4178L66.7635 14.1961L66.3154 14.4178C66.4464 14.6827 66.6992 14.8663 66.9916 14.9092L67.064 14.4145L66.9916 14.9092L67.7616 15.022L66.9916 15.1348L67.064 15.6296L66.9916 15.1348C66.6992 15.1777 66.4464 15.3613 66.3154 15.6262L65.6842 16.9019L65.0531 15.6262L64.6049 15.848L65.0531 15.6262C64.922 15.3613 64.6693 15.1777 64.3769 15.1348Z" fill="#C4C4C4" stroke="white"/>
<path d="M84.4295 15.1348L84.357 15.6296L84.4295 15.1348L83.6594 15.022L84.4295 14.9092L84.357 14.4145L84.4295 14.9092C84.7219 14.8663 84.9746 14.6827 85.1057 14.4178L85.7368 13.1421L86.368 14.4178L86.8161 14.1961L86.368 14.4178C86.499 14.6827 86.7518 14.8663 87.0442 14.9092L87.1167 14.4145L87.0442 14.9092L87.8142 15.022L87.0442 15.1348L87.1167 15.6296L87.0442 15.1348C86.7518 15.1777 86.499 15.3613 86.368 15.6262L85.7368 16.9019L85.1057 15.6262L84.6575 15.848L85.1057 15.6262C84.9746 15.3613 84.7219 15.1777 84.4295 15.1348Z" fill="#C4C4C4" stroke="white"/>
<path d="M104.482 15.1348L104.41 15.6296L104.482 15.1348L103.712 15.022L104.482 14.9092L104.41 14.4145L104.482 14.9092C104.774 14.8663 105.027 14.6827 105.158 14.4178L105.789 13.1421L106.421 14.4178L106.869 14.1961L106.421 14.4178C106.552 14.6827 106.804 14.8663 107.097 14.9092L107.169 14.4145L107.097 14.9092L107.867 15.022L107.097 15.1348L107.169 15.6296L107.097 15.1348C106.804 15.1777 106.552 15.3613 106.421 15.6262L105.789 16.9019L105.158 15.6262L104.71 15.848L105.158 15.6262C105.027 15.3613 104.774 15.1777 104.482 15.1348Z" fill="#C4C4C4" stroke="white"/>
<path d="M124.535 15.1348L124.462 15.6296L124.535 15.1348L123.765 15.022L124.535 14.9092L124.462 14.4145L124.535 14.9092C124.827 14.8663 125.08 14.6827 125.211 14.4178L125.842 13.1421L126.473 14.4178L126.921 14.1961L126.473 14.4178C126.604 14.6827 126.857 14.8663 127.149 14.9092L127.222 14.4145L127.149 14.9092L127.919 15.022L127.149 15.1348L127.222 15.6296L127.149 15.1348C126.857 15.1777 126.604 15.3613 126.473 15.6262L125.842 16.9019L125.211 15.6262L124.763 15.848L125.211 15.6262C125.08 15.3613 124.827 15.1777 124.535 15.1348Z" fill="#C4C4C4" stroke="white"/>
<path d="M144.587 15.1348L144.515 15.6296L144.587 15.1348L143.817 15.022L144.587 14.9092L144.515 14.4145L144.587 14.9092C144.88 14.8663 145.132 14.6827 145.264 14.4178L145.895 13.1421L146.526 14.4178L146.974 14.1961L146.526 14.4178C146.657 14.6827 146.91 14.8663 147.202 14.9092L147.274 14.4145L147.202 14.9092L147.972 15.022L147.202 15.1348L147.274 15.6296L147.202 15.1348C146.91 15.1777 146.657 15.3613 146.526 15.6262L145.895 16.9019L145.264 15.6262L144.815 15.848L145.264 15.6262C145.132 15.3613 144.88 15.1777 144.587 15.1348Z" fill="#C4C4C4" stroke="white"/>
<path d="M164.64 15.1348L164.567 15.6296L164.64 15.1348L163.87 15.022L164.64 14.9092L164.567 14.4145L164.64 14.9092C164.932 14.8663 165.185 14.6827 165.316 14.4178L165.947 13.1421L166.578 14.4178L167.027 14.1961L166.578 14.4178C166.709 14.6827 166.962 14.8663 167.255 14.9092L167.327 14.4145L167.255 14.9092L168.025 15.022L167.255 15.1348L167.327 15.6296L167.255 15.1348C166.962 15.1777 166.709 15.3613 166.578 15.6262L165.947 16.9019L165.316 15.6262L164.868 15.848L165.316 15.6262C165.185 15.3613 164.932 15.1777 164.64 15.1348Z" fill="#C4C4C4" stroke="white"/>
<path d="M184.693 15.1348L184.62 15.6296L184.693 15.1348L183.922 15.022L184.693 14.9092L184.62 14.4145L184.693 14.9092C184.985 14.8663 185.238 14.6827 185.369 14.4178L186 13.1421L186.631 14.4178L187.079 14.1961L186.631 14.4178C186.762 14.6827 187.015 14.8663 187.307 14.9092L187.38 14.4145L187.307 14.9092L188.077 15.022L187.307 15.1348L187.38 15.6296L187.307 15.1348C187.015 15.1777 186.762 15.3613 186.631 15.6262L186 16.9019L185.369 15.6262L184.921 15.848L185.369 15.6262C185.238 15.3613 184.985 15.1777 184.693 15.1348Z" fill="#C4C4C4" stroke="white"/>
<path d="M4.21898 27.1495L4.14649 27.6442L4.21897 27.1495L3.44889 27.0367L4.21897 26.9238L4.14649 26.4291L4.21898 26.9238C4.51138 26.881 4.76411 26.6973 4.89516 26.4324L5.52631 25.1568L6.15747 26.4324L6.60561 26.2107L6.15747 26.4324C6.28852 26.6973 6.54125 26.881 6.83365 26.9238L6.90614 26.4291L6.83366 26.9238L7.60373 27.0367L6.83366 27.1495L6.90614 27.6442L6.83365 27.1495C6.54125 27.1923 6.28852 27.376 6.15747 27.6409L5.52631 28.9165L4.89516 27.6409L4.44702 27.8626L4.89516 27.6409C4.76411 27.376 4.51137 27.1923 4.21898 27.1495Z" fill="#C4C4C4" stroke="white"/>
<path d="M24.2716 27.1495L24.1991 27.6442L24.2716 27.1495L23.5015 27.0367L24.2716 26.9238L24.1991 26.4291L24.2716 26.9238C24.564 26.881 24.8168 26.6973 24.9478 26.4324L25.579 25.1568L26.2101 26.4324L26.6583 26.2107L26.2101 26.4324C26.3412 26.6973 26.5939 26.881 26.8863 26.9238L26.9588 26.4291L26.8863 26.9238L27.6564 27.0367L26.8863 27.1495L26.9588 27.6442L26.8863 27.1495C26.5939 27.1923 26.3412 27.376 26.2101 27.6409L25.579 28.9165L24.9478 27.6409L24.4997 27.8626L24.9478 27.6409C24.8168 27.376 24.564 27.1923 24.2716 27.1495Z" fill="#C4C4C4" stroke="white"/>
<path d="M44.3243 27.1495L44.2518 27.6442L44.3243 27.1495L43.5542 27.0367L44.3243 26.9238L44.2518 26.4291L44.3243 26.9238C44.6167 26.881 44.8694 26.6973 45.0004 26.4324L45.6316 25.1568L46.2628 26.4324L46.7109 26.2107L46.2628 26.4324C46.3938 26.6973 46.6465 26.881 46.9389 26.9238L47.0114 26.4291L46.9389 26.9238L47.709 27.0367L46.9389 27.1495L47.0114 27.6442L46.9389 27.1495C46.6465 27.1923 46.3938 27.376 46.2628 27.6409L45.6316 28.9165L45.0004 27.6409L44.5523 27.8626L45.0004 27.6409C44.8694 27.376 44.6167 27.1923 44.3243 27.1495Z" fill="#C4C4C4" stroke="white"/>
<path d="M64.3769 27.1495L64.3044 27.6442L64.3769 27.1495L63.6068 27.0367L64.3769 26.9238L64.3044 26.4291L64.3769 26.9238C64.6693 26.881 64.922 26.6973 65.0531 26.4324L65.6842 25.1568L66.3154 26.4324L66.7635 26.2107L66.3154 26.4324C66.4464 26.6973 66.6992 26.881 66.9916 26.9238L67.064 26.4291L66.9916 26.9238L67.7616 27.0367L66.9916 27.1495L67.064 27.6442L66.9916 27.1495C66.6992 27.1923 66.4464 27.376 66.3154 27.6409L65.6842 28.9165L65.0531 27.6409L64.6049 27.8626L65.0531 27.6409C64.922 27.376 64.6693 27.1923 64.3769 27.1495Z" fill="#C4C4C4" stroke="white"/>
<path d="M84.4295 27.1495L84.357 27.6442L84.4295 27.1495L83.6594 27.0367L84.4295 26.9238L84.357 26.4291L84.4295 26.9238C84.7219 26.881 84.9746 26.6973 85.1057 26.4324L85.7368 25.1568L86.368 26.4324L86.8161 26.2107L86.368 26.4324C86.499 26.6973 86.7518 26.881 87.0442 26.9238L87.1167 26.4291L87.0442 26.9238L87.8142 27.0367L87.0442 27.1495L87.1167 27.6442L87.0442 27.1495C86.7518 27.1923 86.499 27.376 86.368 27.6409L85.7368 28.9165L85.1057 27.6409L84.6575 27.8626L85.1057 27.6409C84.9746 27.376 84.7219 27.1923 84.4295 27.1495Z" fill="#C4C4C4" stroke="white"/>
<path d="M104.482 27.1495L104.41 27.6442L104.482 27.1495L103.712 27.0367L104.482 26.9238L104.41 26.4291L104.482 26.9238C104.774 26.881 105.027 26.6973 105.158 26.4324L105.789 25.1568L106.421 26.4324L106.869 26.2107L106.421 26.4324C106.552 26.6973 106.804 26.881 107.097 26.9238L107.169 26.4291L107.097 26.9238L107.867 27.0367L107.097 27.1495L107.169 27.6442L107.097 27.1495C106.804 27.1923 106.552 27.376 106.421 27.6409L105.789 28.9165L105.158 27.6409L104.71 27.8626L105.158 27.6409C105.027 27.376 104.774 27.1923 104.482 27.1495Z" fill="#C4C4C4" stroke="white"/>
<path d="M124.535 27.1495L124.462 27.6442L124.535 27.1495L123.765 27.0367L124.535 26.9238L124.462 26.4291L124.535 26.9238C124.827 26.881 125.08 26.6973 125.211 26.4324L125.842 25.1568L126.473 26.4324L126.921 26.2107L126.473 26.4324C126.604 26.6973 126.857 26.881 127.149 26.9238L127.222 26.4291L127.149 26.9238L127.919 27.0367L127.149 27.1495L127.222 27.6442L127.149 27.1495C126.857 27.1923 126.604 27.376 126.473 27.6409L125.842 28.9165L125.211 27.6409L124.763 27.8626L125.211 27.6409C125.08 27.376 124.827 27.1923 124.535 27.1495Z" fill="#C4C4C4" stroke="white"/>
<path d="M144.587 27.1495L144.515 27.6442L144.587 27.1495L143.817 27.0367L144.587 26.9238L144.515 26.4291L144.587 26.9238C144.88 26.881 145.132 26.6973 145.264 26.4324L145.895 25.1568L146.526 26.4324L146.974 26.2107L146.526 26.4324C146.657 26.6973 146.91 26.881 147.202 26.9238L147.274 26.4291L147.202 26.9238L147.972 27.0367L147.202 27.1495L147.274 27.6442L147.202 27.1495C146.91 27.1923 146.657 27.376 146.526 27.6409L145.895 28.9165L145.264 27.6409L144.815 27.8626L145.264 27.6409C145.132 27.376 144.88 27.1923 144.587 27.1495Z" fill="#C4C4C4" stroke="white"/>
<path d="M164.64 27.1495L164.567 27.6442L164.64 27.1495L163.87 27.0367L164.64 26.9238L164.567 26.4291L164.64 26.9238C164.932 26.881 165.185 26.6973 165.316 26.4324L165.947 25.1568L166.578 26.4324L167.027 26.2107L166.578 26.4324C166.709 26.6973 166.962 26.881 167.255 26.9238L167.327 26.4291L167.255 26.9238L168.025 27.0367L167.255 27.1495L167.327 27.6442L167.255 27.1495C166.962 27.1923 166.709 27.376 166.578 27.6409L165.947 28.9165L165.316 27.6409L164.868 27.8626L165.316 27.6409C165.185 27.376 164.932 27.1923 164.64 27.1495Z" fill="#C4C4C4" stroke="white"/>
<path d="M184.693 27.1495L184.62 27.6442L184.693 27.1495L183.922 27.0367L184.693 26.9238L184.62 26.4291L184.693 26.9238C184.985 26.881 185.238 26.6973 185.369 26.4324L186 25.1568L186.631 26.4324L187.079 26.2107L186.631 26.4324C186.762 26.6973 187.015 26.881 187.307 26.9238L187.38 26.4291L187.307 26.9238L188.077 27.0367L187.307 27.1495L187.38 27.6442L187.307 27.1495C187.015 27.1923 186.762 27.376 186.631 27.6409L186 28.9165L185.369 27.6409L184.921 27.8626L185.369 27.6409C185.238 27.376 184.985 27.1923 184.693 27.1495Z" fill="#C4C4C4" stroke="white"/>
<path d="M4.21898 39.1641L4.14649 39.6589L4.21897 39.1641L3.44889 39.0513L4.21897 38.9385L4.14649 38.4438L4.21898 38.9385C4.51138 38.8956 4.76411 38.712 4.89516 38.4471L5.52631 37.1714L6.15747 38.4471L6.60561 38.2254L6.15747 38.4471C6.28852 38.712 6.54125 38.8956 6.83365 38.9385L6.90614 38.4438L6.83366 38.9385L7.60373 39.0513L6.83366 39.1641L6.90614 39.6589L6.83365 39.1641C6.54125 39.207 6.28852 39.3906 6.15747 39.6555L5.52631 40.9312L4.89516 39.6555L4.44702 39.8772L4.89516 39.6555C4.76411 39.3906 4.51137 39.207 4.21898 39.1641Z" fill="#C4C4C4" stroke="white"/>
<path d="M24.2716 39.1641L24.1991 39.6589L24.2716 39.1641L23.5015 39.0513L24.2716 38.9385L24.1991 38.4438L24.2716 38.9385C24.564 38.8956 24.8168 38.712 24.9478 38.4471L25.579 37.1714L26.2101 38.4471L26.6583 38.2254L26.2101 38.4471C26.3412 38.712 26.5939 38.8956 26.8863 38.9385L26.9588 38.4438L26.8863 38.9385L27.6564 39.0513L26.8863 39.1641L26.9588 39.6589L26.8863 39.1641C26.5939 39.207 26.3412 39.3906 26.2101 39.6555L25.579 40.9312L24.9478 39.6555L24.4997 39.8772L24.9478 39.6555C24.8168 39.3906 24.564 39.207 24.2716 39.1641Z" fill="#C4C4C4" stroke="white"/>
<path d="M44.3243 39.1641L44.2518 39.6589L44.3243 39.1641L43.5542 39.0513L44.3243 38.9385L44.2518 38.4438L44.3243 38.9385C44.6167 38.8956 44.8694 38.712 45.0004 38.4471L45.6316 37.1714L46.2628 38.4471L46.7109 38.2254L46.2628 38.4471C46.3938 38.712 46.6465 38.8956 46.9389 38.9385L47.0114 38.4438L46.9389 38.9385L47.709 39.0513L46.9389 39.1641L47.0114 39.6589L46.9389 39.1641C46.6465 39.207 46.3938 39.3906 46.2628 39.6555L45.6316 40.9312L45.0004 39.6555L44.5523 39.8772L45.0004 39.6555C44.8694 39.3906 44.6167 39.207 44.3243 39.1641Z" fill="#C4C4C4" stroke="white"/>
<path d="M64.3769 39.1641L64.3044 39.6589L64.3769 39.1641L63.6068 39.0513L64.3769 38.9385L64.3044 38.4438L64.3769 38.9385C64.6693 38.8956 64.922 38.712 65.0531 38.4471L65.6842 37.1714L66.3154 38.4471L66.7635 38.2254L66.3154 38.4471C66.4464 38.712 66.6992 38.8956 66.9916 38.9385L67.064 38.4438L66.9916 38.9385L67.7616 39.0513L66.9916 39.1641L67.064 39.6589L66.9916 39.1641C66.6992 39.207 66.4464 39.3906 66.3154 39.6555L65.6842 40.9312L65.0531 39.6555L64.6049 39.8772L65.0531 39.6555C64.922 39.3906 64.6693 39.207 64.3769 39.1641Z" fill="#C4C4C4" stroke="white"/>
<path d="M84.4295 39.1641L84.357 39.6589L84.4295 39.1641L83.6594 39.0513L84.4295 38.9385L84.357 38.4438L84.4295 38.9385C84.7219 38.8956 84.9746 38.712 85.1057 38.4471L85.7368 37.1714L86.368 38.4471L86.8161 38.2254L86.368 38.4471C86.499 38.712 86.7518 38.8956 87.0442 38.9385L87.1167 38.4438L87.0442 38.9385L87.8142 39.0513L87.0442 39.1641L87.1167 39.6589L87.0442 39.1641C86.7518 39.207 86.499 39.3906 86.368 39.6555L85.7368 40.9312L85.1057 39.6555L84.6575 39.8772L85.1057 39.6555C84.9746 39.3906 84.7219 39.207 84.4295 39.1641Z" fill="#C4C4C4" stroke="white"/>
<path d="M104.482 39.1641L104.41 39.6589L104.482 39.1641L103.712 39.0513L104.482 38.9385L104.41 38.4438L104.482 38.9385C104.774 38.8956 105.027 38.712 105.158 38.4471L105.789 37.1714L106.421 38.4471L106.869 38.2254L106.421 38.4471C106.552 38.712 106.804 38.8956 107.097 38.9385L107.169 38.4438L107.097 38.9385L107.867 39.0513L107.097 39.1641L107.169 39.6589L107.097 39.1641C106.804 39.207 106.552 39.3906 106.421 39.6555L105.789 40.9312L105.158 39.6555L104.71 39.8772L105.158 39.6555C105.027 39.3906 104.774 39.207 104.482 39.1641Z" fill="#C4C4C4" stroke="white"/>
<path d="M124.535 39.1641L124.462 39.6589L124.535 39.1641L123.765 39.0513L124.535 38.9385L124.462 38.4438L124.535 38.9385C124.827 38.8956 125.08 38.712 125.211 38.4471L125.842 37.1714L126.473 38.4471L126.921 38.2254L126.473 38.4471C126.604 38.712 126.857 38.8956 127.149 38.9385L127.222 38.4438L127.149 38.9385L127.919 39.0513L127.149 39.1641L127.222 39.6589L127.149 39.1641C126.857 39.207 126.604 39.3906 126.473 39.6555L125.842 40.9312L125.211 39.6555L124.763 39.8772L125.211 39.6555C125.08 39.3906 124.827 39.207 124.535 39.1641Z" fill="#C4C4C4" stroke="white"/>
<path d="M144.587 39.1641L144.515 39.6589L144.587 39.1641L143.817 39.0513L144.587 38.9385L144.515 38.4438L144.587 38.9385C144.88 38.8956 145.132 38.712 145.264 38.4471L145.895 37.1714L146.526 38.4471L146.974 38.2254L146.526 38.4471C146.657 38.712 146.91 38.8956 147.202 38.9385L147.274 38.4438L147.202 38.9385L147.972 39.0513L147.202 39.1641L147.274 39.6589L147.202 39.1641C146.91 39.207 146.657 39.3906 146.526 39.6555L145.895 40.9312L145.264 39.6555L144.815 39.8772L145.264 39.6555C145.132 39.3906 144.88 39.207 144.587 39.1641Z" fill="#C4C4C4" stroke="white"/>
<path d="M164.64 39.1641L164.567 39.6589L164.64 39.1641L163.87 39.0513L164.64 38.9385L164.567 38.4438L164.64 38.9385C164.932 38.8956 165.185 38.712 165.316 38.4471L165.947 37.1714L166.578 38.4471L167.027 38.2254L166.578 38.4471C166.709 38.712 166.962 38.8956 167.255 38.9385L167.327 38.4438L167.255 38.9385L168.025 39.0513L167.255 39.1641L167.327 39.6589L167.255 39.1641C166.962 39.207 166.709 39.3906 166.578 39.6555L165.947 40.9312L165.316 39.6555L164.868 39.8772L165.316 39.6555C165.185 39.3906 164.932 39.207 164.64 39.1641Z" fill="#C4C4C4" stroke="white"/>
<path d="M184.693 39.1641L184.62 39.6589L184.693 39.1641L183.922 39.0513L184.693 38.9385L184.62 38.4438L184.693 38.9385C184.985 38.8956 185.238 38.712 185.369 38.4471L186 37.1714L186.631 38.4471L187.079 38.2254L186.631 38.4471C186.762 38.712 187.015 38.8956 187.307 38.9385L187.38 38.4438L187.307 38.9385L188.077 39.0513L187.307 39.1641L187.38 39.6589L187.307 39.1641C187.015 39.207 186.762 39.3906 186.631 39.6555L186 40.9312L185.369 39.6555L184.921 39.8772L185.369 39.6555C185.238 39.3906 184.985 39.207 184.693 39.1641Z" fill="#C4C4C4" stroke="white"/>
<path d="M4.21898 51.1788L4.14649 51.6735L4.21897 51.1788L3.44889 51.066L4.21897 50.9531L4.14649 50.4584L4.21898 50.9531C4.51138 50.9103 4.76411 50.7266 4.89516 50.4617L5.52631 49.1861L6.15747 50.4617L6.60561 50.24L6.15747 50.4617C6.28852 50.7266 6.54125 50.9103 6.83365 50.9531L6.90614 50.4584L6.83366 50.9531L7.60373 51.066L6.83366 51.1788L6.90614 51.6735L6.83365 51.1788C6.54125 51.2216 6.28852 51.4053 6.15747 51.6702L5.52631 52.9458L4.89516 51.6702L4.44702 51.8919L4.89516 51.6702C4.76411 51.4053 4.51137 51.2216 4.21898 51.1788Z" fill="#C4C4C4" stroke="white"/>
<path d="M24.2716 51.1788L24.1991 51.6735L24.2716 51.1788L23.5015 51.066L24.2716 50.9531L24.1991 50.4584L24.2716 50.9531C24.564 50.9103 24.8168 50.7266 24.9478 50.4617L25.579 49.1861L26.2101 50.4617L26.6583 50.24L26.2101 50.4617C26.3412 50.7266 26.5939 50.9103 26.8863 50.9531L26.9588 50.4584L26.8863 50.9531L27.6564 51.066L26.8863 51.1788L26.9588 51.6735L26.8863 51.1788C26.5939 51.2216 26.3412 51.4053 26.2101 51.6702L25.579 52.9458L24.9478 51.6702L24.4997 51.8919L24.9478 51.6702C24.8168 51.4053 24.564 51.2216 24.2716 51.1788Z" fill="#C4C4C4" stroke="white"/>
<path d="M44.3243 51.1788L44.2518 51.6735L44.3243 51.1788L43.5542 51.066L44.3243 50.9531L44.2518 50.4584L44.3243 50.9531C44.6167 50.9103 44.8694 50.7266 45.0004 50.4617L45.6316 49.1861L46.2628 50.4617L46.7109 50.24L46.2628 50.4617C46.3938 50.7266 46.6465 50.9103 46.9389 50.9531L47.0114 50.4584L46.9389 50.9531L47.709 51.066L46.9389 51.1788L47.0114 51.6735L46.9389 51.1788C46.6465 51.2216 46.3938 51.4053 46.2628 51.6702L45.6316 52.9458L45.0004 51.6702L44.5523 51.8919L45.0004 51.6702C44.8694 51.4053 44.6167 51.2216 44.3243 51.1788Z" fill="#C4C4C4" stroke="white"/>
<path d="M64.3769 51.1788L64.3044 51.6735L64.3769 51.1788L63.6068 51.066L64.3769 50.9531L64.3044 50.4584L64.3769 50.9531C64.6693 50.9103 64.922 50.7266 65.0531 50.4617L65.6842 49.1861L66.3154 50.4617L66.7635 50.24L66.3154 50.4617C66.4464 50.7266 66.6992 50.9103 66.9916 50.9531L67.064 50.4584L66.9916 50.9531L67.7616 51.066L66.9916 51.1788L67.064 51.6735L66.9916 51.1788C66.6992 51.2216 66.4464 51.4053 66.3154 51.6702L65.6842 52.9458L65.0531 51.6702L64.6049 51.8919L65.0531 51.6702C64.922 51.4053 64.6693 51.2216 64.3769 51.1788Z" fill="#C4C4C4" stroke="white"/>
<path d="M84.4295 51.1788L84.357 51.6735L84.4295 51.1788L83.6594 51.066L84.4295 50.9531L84.357 50.4584L84.4295 50.9531C84.7219 50.9103 84.9746 50.7266 85.1057 50.4617L85.7368 49.1861L86.368 50.4617L86.8161 50.24L86.368 50.4617C86.499 50.7266 86.7518 50.9103 87.0442 50.9531L87.1167 50.4584L87.0442 50.9531L87.8142 51.066L87.0442 51.1788L87.1167 51.6735L87.0442 51.1788C86.7518 51.2216 86.499 51.4053 86.368 51.6702L85.7368 52.9458L85.1057 51.6702L84.6575 51.8919L85.1057 51.6702C84.9746 51.4053 84.7219 51.2216 84.4295 51.1788Z" fill="#C4C4C4" stroke="white"/>
<path d="M104.482 51.1788L104.41 51.6735L104.482 51.1788L103.712 51.066L104.482 50.9531L104.41 50.4584L104.482 50.9531C104.774 50.9103 105.027 50.7266 105.158 50.4617L105.789 49.1861L106.421 50.4617L106.869 50.24L106.421 50.4617C106.552 50.7266 106.804 50.9103 107.097 50.9531L107.169 50.4584L107.097 50.9531L107.867 51.066L107.097 51.1788L107.169 51.6735L107.097 51.1788C106.804 51.2216 106.552 51.4053 106.421 51.6702L105.789 52.9458L105.158 51.6702L104.71 51.8919L105.158 51.6702C105.027 51.4053 104.774 51.2216 104.482 51.1788Z" fill="#C4C4C4" stroke="white"/>
<path d="M124.535 51.1788L124.462 51.6735L124.535 51.1788L123.765 51.066L124.535 50.9531L124.462 50.4584L124.535 50.9531C124.827 50.9103 125.08 50.7266 125.211 50.4617L125.842 49.1861L126.473 50.4617L126.921 50.24L126.473 50.4617C126.604 50.7266 126.857 50.9103 127.149 50.9531L127.222 50.4584L127.149 50.9531L127.919 51.066L127.149 51.1788L127.222 51.6735L127.149 51.1788C126.857 51.2216 126.604 51.4053 126.473 51.6702L125.842 52.9458L125.211 51.6702L124.763 51.8919L125.211 51.6702C125.08 51.4053 124.827 51.2216 124.535 51.1788Z" fill="#C4C4C4" stroke="white"/>
<path d="M144.587 51.1788L144.515 51.6735L144.587 51.1788L143.817 51.066L144.587 50.9531L144.515 50.4584L144.587 50.9531C144.88 50.9103 145.132 50.7266 145.264 50.4617L145.895 49.1861L146.526 50.4617L146.974 50.24L146.526 50.4617C146.657 50.7266 146.91 50.9103 147.202 50.9531L147.274 50.4584L147.202 50.9531L147.972 51.066L147.202 51.1788L147.274 51.6735L147.202 51.1788C146.91 51.2216 146.657 51.4053 146.526 51.6702L145.895 52.9458L145.264 51.6702L144.815 51.8919L145.264 51.6702C145.132 51.4053 144.88 51.2216 144.587 51.1788Z" fill="#C4C4C4" stroke="white"/>
<path d="M164.64 51.1788L164.567 51.6735L164.64 51.1788L163.87 51.066L164.64 50.9531L164.567 50.4584L164.64 50.9531C164.932 50.9103 165.185 50.7266 165.316 50.4617L165.947 49.1861L166.578 50.4617L167.027 50.24L166.578 50.4617C166.709 50.7266 166.962 50.9103 167.255 50.9531L167.327 50.4584L167.255 50.9531L168.025 51.066L167.255 51.1788L167.327 51.6735L167.255 51.1788C166.962 51.2216 166.709 51.4053 166.578 51.6702L165.947 52.9458L165.316 51.6702L164.868 51.8919L165.316 51.6702C165.185 51.4053 164.932 51.2216 164.64 51.1788Z" fill="#C4C4C4" stroke="white"/>
<path d="M184.693 51.1788L184.62 51.6735L184.693 51.1788L183.922 51.066L184.693 50.9531L184.62 50.4584L184.693 50.9531C184.985 50.9103 185.238 50.7266 185.369 50.4617L186 49.1861L186.631 50.4617L187.079 50.24L186.631 50.4617C186.762 50.7266 187.015 50.9103 187.307 50.9531L187.38 50.4584L187.307 50.9531L188.077 51.066L187.307 51.1788L187.38 51.6735L187.307 51.1788C187.015 51.2216 186.762 51.4053 186.631 51.6702L186 52.9458L185.369 51.6702L184.921 51.8919L185.369 51.6702C185.238 51.4053 184.985 51.2216 184.693 51.1788Z" fill="#C4C4C4" stroke="white"/>
<path d="M4.21898 63.1934L4.14649 63.6882L4.21897 63.1934L3.44889 63.0806L4.21897 62.9678L4.14649 62.4731L4.21898 62.9678C4.51138 62.9249 4.76411 62.7413 4.89516 62.4764L5.52631 61.2007L6.15747 62.4764L6.60561 62.2547L6.15747 62.4764C6.28852 62.7413 6.54125 62.9249 6.83365 62.9678L6.90614 62.4731L6.83366 62.9678L7.60373 63.0806L6.83366 63.1934L6.90614 63.6882L6.83365 63.1934C6.54125 63.2363 6.28852 63.4199 6.15747 63.6848L5.52631 64.9605L4.89516 63.6848L4.44702 63.9065L4.89516 63.6848C4.76411 63.4199 4.51137 63.2363 4.21898 63.1934Z" fill="#C4C4C4" stroke="white"/>
<path d="M24.2716 63.1934L24.1991 63.6882L24.2716 63.1934L23.5015 63.0806L24.2716 62.9678L24.1991 62.4731L24.2716 62.9678C24.564 62.9249 24.8168 62.7413 24.9478 62.4764L25.579 61.2007L26.2101 62.4764L26.6583 62.2547L26.2101 62.4764C26.3412 62.7413 26.5939 62.9249 26.8863 62.9678L26.9588 62.4731L26.8863 62.9678L27.6564 63.0806L26.8863 63.1934L26.9588 63.6882L26.8863 63.1934C26.5939 63.2363 26.3412 63.4199 26.2101 63.6848L25.579 64.9605L24.9478 63.6848L24.4997 63.9065L24.9478 63.6848C24.8168 63.4199 24.564 63.2363 24.2716 63.1934Z" fill="#C4C4C4" stroke="white"/>
<path d="M44.3243 63.1934L44.2518 63.6882L44.3243 63.1934L43.5542 63.0806L44.3243 62.9678L44.2518 62.4731L44.3243 62.9678C44.6167 62.9249 44.8694 62.7413 45.0004 62.4764L45.6316 61.2007L46.2628 62.4764L46.7109 62.2547L46.2628 62.4764C46.3938 62.7413 46.6465 62.9249 46.9389 62.9678L47.0114 62.4731L46.9389 62.9678L47.709 63.0806L46.9389 63.1934L47.0114 63.6882L46.9389 63.1934C46.6465 63.2363 46.3938 63.4199 46.2628 63.6848L45.6316 64.9605L45.0004 63.6848L44.5523 63.9065L45.0004 63.6848C44.8694 63.4199 44.6167 63.2363 44.3243 63.1934Z" fill="#C4C4C4" stroke="white"/>
<path d="M64.3769 63.1934L64.3044 63.6882L64.3769 63.1934L63.6068 63.0806L64.3769 62.9678L64.3044 62.4731L64.3769 62.9678C64.6693 62.9249 64.922 62.7413 65.0531 62.4764L65.6842 61.2007L66.3154 62.4764L66.7635 62.2547L66.3154 62.4764C66.4464 62.7413 66.6992 62.9249 66.9916 62.9678L67.064 62.4731L66.9916 62.9678L67.7616 63.0806L66.9916 63.1934L67.064 63.6882L66.9916 63.1934C66.6992 63.2363 66.4464 63.4199 66.3154 63.6848L65.6842 64.9605L65.0531 63.6848L64.6049 63.9065L65.0531 63.6848C64.922 63.4199 64.6693 63.2363 64.3769 63.1934Z" fill="#C4C4C4" stroke="white"/>
<path d="M84.4295 63.1934L84.357 63.6882L84.4295 63.1934L83.6594 63.0806L84.4295 62.9678L84.357 62.4731L84.4295 62.9678C84.7219 62.9249 84.9746 62.7413 85.1057 62.4764L85.7368 61.2007L86.368 62.4764L86.8161 62.2547L86.368 62.4764C86.499 62.7413 86.7518 62.9249 87.0442 62.9678L87.1167 62.4731L87.0442 62.9678L87.8142 63.0806L87.0442 63.1934L87.1167 63.6882L87.0442 63.1934C86.7518 63.2363 86.499 63.4199 86.368 63.6848L85.7368 64.9605L85.1057 63.6848L84.6575 63.9065L85.1057 63.6848C84.9746 63.4199 84.7219 63.2363 84.4295 63.1934Z" fill="#C4C4C4" stroke="white"/>
<path d="M104.482 63.1934L104.41 63.6882L104.482 63.1934L103.712 63.0806L104.482 62.9678L104.41 62.4731L104.482 62.9678C104.774 62.9249 105.027 62.7413 105.158 62.4764L105.789 61.2007L106.421 62.4764L106.869 62.2547L106.421 62.4764C106.552 62.7413 106.804 62.9249 107.097 62.9678L107.169 62.4731L107.097 62.9678L107.867 63.0806L107.097 63.1934L107.169 63.6882L107.097 63.1934C106.804 63.2363 106.552 63.4199 106.421 63.6848L105.789 64.9605L105.158 63.6848L104.71 63.9065L105.158 63.6848C105.027 63.4199 104.774 63.2363 104.482 63.1934Z" fill="#C4C4C4" stroke="white"/>
<path d="M124.535 63.1934L124.462 63.6882L124.535 63.1934L123.765 63.0806L124.535 62.9678L124.462 62.4731L124.535 62.9678C124.827 62.9249 125.08 62.7413 125.211 62.4764L125.842 61.2007L126.473 62.4764L126.921 62.2547L126.473 62.4764C126.604 62.7413 126.857 62.9249 127.149 62.9678L127.222 62.4731L127.149 62.9678L127.919 63.0806L127.149 63.1934L127.222 63.6882L127.149 63.1934C126.857 63.2363 126.604 63.4199 126.473 63.6848L125.842 64.9605L125.211 63.6848L124.763 63.9065L125.211 63.6848C125.08 63.4199 124.827 63.2363 124.535 63.1934Z" fill="#C4C4C4" stroke="white"/>
<path d="M144.587 63.1934L144.515 63.6882L144.587 63.1934L143.817 63.0806L144.587 62.9678L144.515 62.4731L144.587 62.9678C144.88 62.9249 145.132 62.7413 145.264 62.4764L145.895 61.2007L146.526 62.4764L146.974 62.2547L146.526 62.4764C146.657 62.7413 146.91 62.9249 147.202 62.9678L147.274 62.4731L147.202 62.9678L147.972 63.0806L147.202 63.1934L147.274 63.6882L147.202 63.1934C146.91 63.2363 146.657 63.4199 146.526 63.6848L145.895 64.9605L145.264 63.6848L144.815 63.9065L145.264 63.6848C145.132 63.4199 144.88 63.2363 144.587 63.1934Z" fill="#C4C4C4" stroke="white"/>
<path d="M164.64 63.1934L164.567 63.6882L164.64 63.1934L163.87 63.0806L164.64 62.9678L164.567 62.4731L164.64 62.9678C164.932 62.9249 165.185 62.7413 165.316 62.4764L165.947 61.2007L166.578 62.4764L167.027 62.2547L166.578 62.4764C166.709 62.7413 166.962 62.9249 167.255 62.9678L167.327 62.4731L167.255 62.9678L168.025 63.0806L167.255 63.1934L167.327 63.6882L167.255 63.1934C166.962 63.2363 166.709 63.4199 166.578 63.6848L165.947 64.9605L165.316 63.6848L164.868 63.9065L165.316 63.6848C165.185 63.4199 164.932 63.2363 164.64 63.1934Z" fill="#C4C4C4" stroke="white"/>
<path d="M184.693 63.1934L184.62 63.6882L184.693 63.1934L183.922 63.0806L184.693 62.9678L184.62 62.4731L184.693 62.9678C184.985 62.9249 185.238 62.7413 185.369 62.4764L186 61.2007L186.631 62.4764L187.079 62.2547L186.631 62.4764C186.762 62.7413 187.015 62.9249 187.307 62.9678L187.38 62.4731L187.307 62.9678L188.077 63.0806L187.307 63.1934L187.38 63.6882L187.307 63.1934C187.015 63.2363 186.762 63.4199 186.631 63.6848L186 64.9605L185.369 63.6848L184.921 63.9065L185.369 63.6848C185.238 63.4199 184.985 63.2363 184.693 63.1934Z" fill="#C4C4C4" stroke="white"/>
<path d="M4.21898 75.2081L4.14649 75.7028L4.21897 75.2081L3.44889 75.0953L4.21897 74.9824L4.14649 74.4877L4.21898 74.9824C4.51138 74.9396 4.76411 74.7559 4.89516 74.491L5.52631 73.2154L6.15747 74.491L6.60561 74.2693L6.15747 74.491C6.28852 74.7559 6.54125 74.9396 6.83365 74.9824L6.90614 74.4877L6.83366 74.9824L7.60373 75.0953L6.83366 75.2081L6.90614 75.7028L6.83365 75.2081C6.54125 75.2509 6.28852 75.4346 6.15747 75.6995L5.52631 76.9751L4.89516 75.6995L4.44702 75.9212L4.89516 75.6995C4.76411 75.4346 4.51137 75.2509 4.21898 75.2081Z" fill="#C4C4C4" stroke="white"/>
<path d="M24.2716 75.2081L24.1991 75.7028L24.2716 75.2081L23.5015 75.0953L24.2716 74.9824L24.1991 74.4877L24.2716 74.9824C24.564 74.9396 24.8168 74.7559 24.9478 74.491L25.579 73.2154L26.2101 74.491L26.6583 74.2693L26.2101 74.491C26.3412 74.7559 26.5939 74.9396 26.8863 74.9824L26.9588 74.4877L26.8863 74.9824L27.6564 75.0953L26.8863 75.2081L26.9588 75.7028L26.8863 75.2081C26.5939 75.2509 26.3412 75.4346 26.2101 75.6995L25.579 76.9751L24.9478 75.6995L24.4997 75.9212L24.9478 75.6995C24.8168 75.4346 24.564 75.2509 24.2716 75.2081Z" fill="#C4C4C4" stroke="white"/>
<path d="M44.3243 75.2081L44.2518 75.7028L44.3243 75.2081L43.5542 75.0953L44.3243 74.9824L44.2518 74.4877L44.3243 74.9824C44.6167 74.9396 44.8694 74.7559 45.0004 74.491L45.6316 73.2154L46.2628 74.491L46.7109 74.2693L46.2628 74.491C46.3938 74.7559 46.6465 74.9396 46.9389 74.9824L47.0114 74.4877L46.9389 74.9824L47.709 75.0953L46.9389 75.2081L47.0114 75.7028L46.9389 75.2081C46.6465 75.2509 46.3938 75.4346 46.2628 75.6995L45.6316 76.9751L45.0004 75.6995L44.5523 75.9212L45.0004 75.6995C44.8694 75.4346 44.6167 75.2509 44.3243 75.2081Z" fill="#C4C4C4" stroke="white"/>
<path d="M64.3769 75.2081L64.3044 75.7028L64.3769 75.2081L63.6068 75.0953L64.3769 74.9824L64.3044 74.4877L64.3769 74.9824C64.6693 74.9396 64.922 74.7559 65.0531 74.491L65.6842 73.2154L66.3154 74.491L66.7635 74.2693L66.3154 74.491C66.4464 74.7559 66.6992 74.9396 66.9916 74.9824L67.064 74.4877L66.9916 74.9824L67.7616 75.0953L66.9916 75.2081L67.064 75.7028L66.9916 75.2081C66.6992 75.2509 66.4464 75.4346 66.3154 75.6995L65.6842 76.9751L65.0531 75.6995L64.6049 75.9212L65.0531 75.6995C64.922 75.4346 64.6693 75.2509 64.3769 75.2081Z" fill="#C4C4C4" stroke="white"/>
<path d="M84.4295 75.2081L84.357 75.7028L84.4295 75.2081L83.6594 75.0953L84.4295 74.9824L84.357 74.4877L84.4295 74.9824C84.7219 74.9396 84.9746 74.7559 85.1057 74.491L85.7368 73.2154L86.368 74.491L86.8161 74.2693L86.368 74.491C86.499 74.7559 86.7518 74.9396 87.0442 74.9824L87.1167 74.4877L87.0442 74.9824L87.8142 75.0953L87.0442 75.2081L87.1167 75.7028L87.0442 75.2081C86.7518 75.2509 86.499 75.4346 86.368 75.6995L85.7368 76.9751L85.1057 75.6995L84.6575 75.9212L85.1057 75.6995C84.9746 75.4346 84.7219 75.2509 84.4295 75.2081Z" fill="#C4C4C4" stroke="white"/>
<path d="M104.482 75.2081L104.41 75.7028L104.482 75.2081L103.712 75.0953L104.482 74.9824L104.41 74.4877L104.482 74.9824C104.774 74.9396 105.027 74.7559 105.158 74.491L105.789 73.2154L106.421 74.491L106.869 74.2693L106.421 74.491C106.552 74.7559 106.804 74.9396 107.097 74.9824L107.169 74.4877L107.097 74.9824L107.867 75.0953L107.097 75.2081L107.169 75.7028L107.097 75.2081C106.804 75.2509 106.552 75.4346 106.421 75.6995L105.789 76.9751L105.158 75.6995L104.71 75.9212L105.158 75.6995C105.027 75.4346 104.774 75.2509 104.482 75.2081Z" fill="#C4C4C4" stroke="white"/>
<path d="M124.535 75.2081L124.462 75.7028L124.535 75.2081L123.765 75.0953L124.535 74.9824L124.462 74.4877L124.535 74.9824C124.827 74.9396 125.08 74.7559 125.211 74.491L125.842 73.2154L126.473 74.491L126.921 74.2693L126.473 74.491C126.604 74.7559 126.857 74.9396 127.149 74.9824L127.222 74.4877L127.149 74.9824L127.919 75.0953L127.149 75.2081L127.222 75.7028L127.149 75.2081C126.857 75.2509 126.604 75.4346 126.473 75.6995L125.842 76.9751L125.211 75.6995L124.763 75.9212L125.211 75.6995C125.08 75.4346 124.827 75.2509 124.535 75.2081Z" fill="#C4C4C4" stroke="white"/>
<path d="M144.587 75.2081L144.515 75.7028L144.587 75.2081L143.817 75.0953L144.587 74.9824L144.515 74.4877L144.587 74.9824C144.88 74.9396 145.132 74.7559 145.264 74.491L145.895 73.2154L146.526 74.491L146.974 74.2693L146.526 74.491C146.657 74.7559 146.91 74.9396 147.202 74.9824L147.274 74.4877L147.202 74.9824L147.972 75.0953L147.202 75.2081L147.274 75.7028L147.202 75.2081C146.91 75.2509 146.657 75.4346 146.526 75.6995L145.895 76.9751L145.264 75.6995L144.815 75.9212L145.264 75.6995C145.132 75.4346 144.88 75.2509 144.587 75.2081Z" fill="#C4C4C4" stroke="white"/>
<path d="M164.64 75.2081L164.567 75.7028L164.64 75.2081L163.87 75.0953L164.64 74.9824L164.567 74.4877L164.64 74.9824C164.932 74.9396 165.185 74.7559 165.316 74.491L165.947 73.2154L166.578 74.491L167.027 74.2693L166.578 74.491C166.709 74.7559 166.962 74.9396 167.255 74.9824L167.327 74.4877L167.255 74.9824L168.025 75.0953L167.255 75.2081L167.327 75.7028L167.255 75.2081C166.962 75.2509 166.709 75.4346 166.578 75.6995L165.947 76.9751L165.316 75.6995L164.868 75.9212L165.316 75.6995C165.185 75.4346 164.932 75.2509 164.64 75.2081Z" fill="#C4C4C4" stroke="white"/>
<path d="M184.693 75.2081L184.62 75.7028L184.693 75.2081L183.922 75.0953L184.693 74.9824L184.62 74.4877L184.693 74.9824C184.985 74.9396 185.238 74.7559 185.369 74.491L186 73.2154L186.631 74.491L187.079 74.2693L186.631 74.491C186.762 74.7559 187.015 74.9396 187.307 74.9824L187.38 74.4877L187.307 74.9824L188.077 75.0953L187.307 75.2081L187.38 75.7028L187.307 75.2081C187.015 75.2509 186.762 75.4346 186.631 75.6995L186 76.9751L185.369 75.6995L184.921 75.9212L185.369 75.6995C185.238 75.4346 184.985 75.2509 184.693 75.2081Z" fill="#C4C4C4" stroke="white"/>
<path d="M4.21898 87.2227L4.14649 87.7175L4.21897 87.2227L3.44889 87.1099L4.21897 86.9971L4.14649 86.5023L4.21898 86.9971C4.51138 86.9542 4.76411 86.7706 4.89516 86.5057L5.52631 85.23L6.15747 86.5057L6.60561 86.284L6.15747 86.5057C6.28852 86.7706 6.54125 86.9542 6.83365 86.9971L6.90614 86.5023L6.83366 86.9971L7.60373 87.1099L6.83366 87.2227L6.90614 87.7175L6.83365 87.2227C6.54125 87.2656 6.28852 87.4492 6.15747 87.7141L5.52631 88.9898L4.89516 87.7141L4.44702 87.9358L4.89516 87.7141C4.76411 87.4492 4.51137 87.2656 4.21898 87.2227Z" fill="#C4C4C4" stroke="white"/>
<path d="M24.2716 87.2227L24.1991 87.7175L24.2716 87.2227L23.5015 87.1099L24.2716 86.9971L24.1991 86.5023L24.2716 86.9971C24.564 86.9542 24.8168 86.7706 24.9478 86.5057L25.579 85.23L26.2101 86.5057L26.6583 86.284L26.2101 86.5057C26.3412 86.7706 26.5939 86.9542 26.8863 86.9971L26.9588 86.5023L26.8863 86.9971L27.6564 87.1099L26.8863 87.2227L26.9588 87.7175L26.8863 87.2227C26.5939 87.2656 26.3412 87.4492 26.2101 87.7141L25.579 88.9898L24.9478 87.7141L24.4997 87.9358L24.9478 87.7141C24.8168 87.4492 24.564 87.2656 24.2716 87.2227Z" fill="#C4C4C4" stroke="white"/>
<path d="M44.3243 87.2227L44.2518 87.7175L44.3243 87.2227L43.5542 87.1099L44.3243 86.9971L44.2518 86.5023L44.3243 86.9971C44.6167 86.9542 44.8694 86.7706 45.0004 86.5057L45.6316 85.23L46.2628 86.5057L46.7109 86.284L46.2628 86.5057C46.3938 86.7706 46.6465 86.9542 46.9389 86.9971L47.0114 86.5023L46.9389 86.9971L47.709 87.1099L46.9389 87.2227L47.0114 87.7175L46.9389 87.2227C46.6465 87.2656 46.3938 87.4492 46.2628 87.7141L45.6316 88.9898L45.0004 87.7141L44.5523 87.9358L45.0004 87.7141C44.8694 87.4492 44.6167 87.2656 44.3243 87.2227Z" fill="#C4C4C4" stroke="white"/>
<path d="M64.3769 87.2227L64.3044 87.7175L64.3769 87.2227L63.6068 87.1099L64.3769 86.9971L64.3044 86.5023L64.3769 86.9971C64.6693 86.9542 64.922 86.7706 65.0531 86.5057L65.6842 85.23L66.3154 86.5057L66.7635 86.284L66.3154 86.5057C66.4464 86.7706 66.6992 86.9542 66.9916 86.9971L67.064 86.5023L66.9916 86.9971L67.7616 87.1099L66.9916 87.2227L67.064 87.7175L66.9916 87.2227C66.6992 87.2656 66.4464 87.4492 66.3154 87.7141L65.6842 88.9898L65.0531 87.7141L64.6049 87.9358L65.0531 87.7141C64.922 87.4492 64.6693 87.2656 64.3769 87.2227Z" fill="#C4C4C4" stroke="white"/>
<path d="M84.4295 87.2227L84.357 87.7175L84.4295 87.2227L83.6594 87.1099L84.4295 86.9971L84.357 86.5023L84.4295 86.9971C84.7219 86.9542 84.9746 86.7706 85.1057 86.5057L85.7368 85.23L86.368 86.5057L86.8161 86.284L86.368 86.5057C86.499 86.7706 86.7518 86.9542 87.0442 86.9971L87.1167 86.5023L87.0442 86.9971L87.8142 87.1099L87.0442 87.2227L87.1167 87.7175L87.0442 87.2227C86.7518 87.2656 86.499 87.4492 86.368 87.7141L85.7368 88.9898L85.1057 87.7141L84.6575 87.9358L85.1057 87.7141C84.9746 87.4492 84.7219 87.2656 84.4295 87.2227Z" fill="#C4C4C4" stroke="white"/>
<path d="M104.482 87.2227L104.41 87.7175L104.482 87.2227L103.712 87.1099L104.482 86.9971L104.41 86.5023L104.482 86.9971C104.774 86.9542 105.027 86.7706 105.158 86.5057L105.789 85.23L106.421 86.5057L106.869 86.284L106.421 86.5057C106.552 86.7706 106.804 86.9542 107.097 86.9971L107.169 86.5023L107.097 86.9971L107.867 87.1099L107.097 87.2227L107.169 87.7175L107.097 87.2227C106.804 87.2656 106.552 87.4492 106.421 87.7141L105.789 88.9898L105.158 87.7141L104.71 87.9358L105.158 87.7141C105.027 87.4492 104.774 87.2656 104.482 87.2227Z" fill="#C4C4C4" stroke="white"/>
<path d="M124.535 87.2227L124.462 87.7175L124.535 87.2227L123.765 87.1099L124.535 86.9971L124.462 86.5023L124.535 86.9971C124.827 86.9542 125.08 86.7706 125.211 86.5057L125.842 85.23L126.473 86.5057L126.921 86.284L126.473 86.5057C126.604 86.7706 126.857 86.9542 127.149 86.9971L127.222 86.5023L127.149 86.9971L127.919 87.1099L127.149 87.2227L127.222 87.7175L127.149 87.2227C126.857 87.2656 126.604 87.4492 126.473 87.7141L125.842 88.9898L125.211 87.7141L124.763 87.9358L125.211 87.7141C125.08 87.4492 124.827 87.2656 124.535 87.2227Z" fill="#C4C4C4" stroke="white"/>
<path d="M144.587 87.2227L144.515 87.7175L144.587 87.2227L143.817 87.1099L144.587 86.9971L144.515 86.5023L144.587 86.9971C144.88 86.9542 145.132 86.7706 145.264 86.5057L145.895 85.23L146.526 86.5057L146.974 86.284L146.526 86.5057C146.657 86.7706 146.91 86.9542 147.202 86.9971L147.274 86.5023L147.202 86.9971L147.972 87.1099L147.202 87.2227L147.274 87.7175L147.202 87.2227C146.91 87.2656 146.657 87.4492 146.526 87.7141L145.895 88.9898L145.264 87.7141L144.815 87.9358L145.264 87.7141C145.132 87.4492 144.88 87.2656 144.587 87.2227Z" fill="#C4C4C4" stroke="white"/>
<path d="M164.64 87.2227L164.567 87.7175L164.64 87.2227L163.87 87.1099L164.64 86.9971L164.567 86.5023L164.64 86.9971C164.932 86.9542 165.185 86.7706 165.316 86.5057L165.947 85.23L166.578 86.5057L167.027 86.284L166.578 86.5057C166.709 86.7706 166.962 86.9542 167.255 86.9971L167.327 86.5023L167.255 86.9971L168.025 87.1099L167.255 87.2227L167.327 87.7175L167.255 87.2227C166.962 87.2656 166.709 87.4492 166.578 87.7141L165.947 88.9898L165.316 87.7141L164.868 87.9358L165.316 87.7141C165.185 87.4492 164.932 87.2656 164.64 87.2227Z" fill="#C4C4C4" stroke="white"/>
<path d="M184.693 87.2227L184.62 87.7175L184.693 87.2227L183.922 87.1099L184.693 86.9971L184.62 86.5023L184.693 86.9971C184.985 86.9542 185.238 86.7706 185.369 86.5057L186 85.23L186.631 86.5057L187.079 86.284L186.631 86.5057C186.762 86.7706 187.015 86.9542 187.307 86.9971L187.38 86.5023L187.307 86.9971L188.077 87.1099L187.307 87.2227L187.38 87.7175L187.307 87.2227C187.015 87.2656 186.762 87.4492 186.631 87.7141L186 88.9898L185.369 87.7141L184.921 87.9358L185.369 87.7141C185.238 87.4492 184.985 87.2656 184.693 87.2227Z" fill="#C4C4C4" stroke="white"/>
<path d="M4.21898 99.2374L4.14649 99.7321L4.21897 99.2374L3.44889 99.1245L4.21897 99.0117L4.14649 98.517L4.21898 99.0117C4.51138 98.9689 4.76411 98.7852 4.89516 98.5203L5.52631 97.2447L6.15747 98.5203L6.60561 98.2986L6.15747 98.5203C6.28852 98.7852 6.54125 98.9689 6.83365 99.0117L6.90614 98.517L6.83366 99.0117L7.60373 99.1245L6.83366 99.2374L6.90614 99.7321L6.83365 99.2374C6.54125 99.2802 6.28852 99.4639 6.15747 99.7288L5.52631 101.004L4.89516 99.7288L4.44702 99.9505L4.89516 99.7288C4.76411 99.4639 4.51137 99.2802 4.21898 99.2374Z" fill="#C4C4C4" stroke="white"/>
<path d="M24.2716 99.2374L24.1991 99.7321L24.2716 99.2374L23.5015 99.1245L24.2716 99.0117L24.1991 98.517L24.2716 99.0117C24.564 98.9689 24.8168 98.7852 24.9478 98.5203L25.579 97.2447L26.2101 98.5203L26.6583 98.2986L26.2101 98.5203C26.3412 98.7852 26.5939 98.9689 26.8863 99.0117L26.9588 98.517L26.8863 99.0117L27.6564 99.1245L26.8863 99.2374L26.9588 99.7321L26.8863 99.2374C26.5939 99.2802 26.3412 99.4639 26.2101 99.7288L25.579 101.004L24.9478 99.7288L24.4997 99.9505L24.9478 99.7288C24.8168 99.4639 24.564 99.2802 24.2716 99.2374Z" fill="#C4C4C4" stroke="white"/>
<path d="M44.3243 99.2374L44.2518 99.7321L44.3243 99.2374L43.5542 99.1245L44.3243 99.0117L44.2518 98.517L44.3243 99.0117C44.6167 98.9689 44.8694 98.7852 45.0004 98.5203L45.6316 97.2447L46.2628 98.5203L46.7109 98.2986L46.2628 98.5203C46.3938 98.7852 46.6465 98.9689 46.9389 99.0117L47.0114 98.517L46.9389 99.0117L47.709 99.1245L46.9389 99.2374L47.0114 99.7321L46.9389 99.2374C46.6465 99.2802 46.3938 99.4639 46.2628 99.7288L45.6316 101.004L45.0004 99.7288L44.5523 99.9505L45.0004 99.7288C44.8694 99.4639 44.6167 99.2802 44.3243 99.2374Z" fill="#C4C4C4" stroke="white"/>
<path d="M64.3769 99.2374L64.3044 99.7321L64.3769 99.2374L63.6068 99.1245L64.3769 99.0117L64.3044 98.517L64.3769 99.0117C64.6693 98.9689 64.922 98.7852 65.0531 98.5203L65.6842 97.2447L66.3154 98.5203L66.7635 98.2986L66.3154 98.5203C66.4464 98.7852 66.6992 98.9689 66.9916 99.0117L67.064 98.517L66.9916 99.0117L67.7616 99.1245L66.9916 99.2374L67.064 99.7321L66.9916 99.2374C66.6992 99.2802 66.4464 99.4639 66.3154 99.7288L65.6842 101.004L65.0531 99.7288L64.6049 99.9505L65.0531 99.7288C64.922 99.4639 64.6693 99.2802 64.3769 99.2374Z" fill="#C4C4C4" stroke="white"/>
<path d="M84.4295 99.2374L84.357 99.7321L84.4295 99.2374L83.6594 99.1245L84.4295 99.0117L84.357 98.517L84.4295 99.0117C84.7219 98.9689 84.9746 98.7852 85.1057 98.5203L85.7368 97.2447L86.368 98.5203L86.8161 98.2986L86.368 98.5203C86.499 98.7852 86.7518 98.9689 87.0442 99.0117L87.1167 98.517L87.0442 99.0117L87.8142 99.1245L87.0442 99.2374L87.1167 99.7321L87.0442 99.2374C86.7518 99.2802 86.499 99.4639 86.368 99.7288L85.7368 101.004L85.1057 99.7288L84.6575 99.9505L85.1057 99.7288C84.9746 99.4639 84.7219 99.2802 84.4295 99.2374Z" fill="#C4C4C4" stroke="white"/>
<path d="M104.482 99.2374L104.41 99.7321L104.482 99.2374L103.712 99.1245L104.482 99.0117L104.41 98.517L104.482 99.0117C104.774 98.9689 105.027 98.7852 105.158 98.5203L105.789 97.2447L106.421 98.5203L106.869 98.2986L106.421 98.5203C106.552 98.7852 106.804 98.9689 107.097 99.0117L107.169 98.517L107.097 99.0117L107.867 99.1245L107.097 99.2374L107.169 99.7321L107.097 99.2374C106.804 99.2802 106.552 99.4639 106.421 99.7288L105.789 101.004L105.158 99.7288L104.71 99.9505L105.158 99.7288C105.027 99.4639 104.774 99.2802 104.482 99.2374Z" fill="#C4C4C4" stroke="white"/>
<path d="M124.535 99.2374L124.462 99.7321L124.535 99.2374L123.765 99.1245L124.535 99.0117L124.462 98.517L124.535 99.0117C124.827 98.9689 125.08 98.7852 125.211 98.5203L125.842 97.2447L126.473 98.5203L126.921 98.2986L126.473 98.5203C126.604 98.7852 126.857 98.9689 127.149 99.0117L127.222 98.517L127.149 99.0117L127.919 99.1245L127.149 99.2374L127.222 99.7321L127.149 99.2374C126.857 99.2802 126.604 99.4639 126.473 99.7288L125.842 101.004L125.211 99.7288L124.763 99.9505L125.211 99.7288C125.08 99.4639 124.827 99.2802 124.535 99.2374Z" fill="#C4C4C4" stroke="white"/>
<path d="M144.587 99.2374L144.515 99.7321L144.587 99.2374L143.817 99.1245L144.587 99.0117L144.515 98.517L144.587 99.0117C144.88 98.9689 145.132 98.7852 145.264 98.5203L145.895 97.2447L146.526 98.5203L146.974 98.2986L146.526 98.5203C146.657 98.7852 146.91 98.9689 147.202 99.0117L147.274 98.517L147.202 99.0117L147.972 99.1245L147.202 99.2374L147.274 99.7321L147.202 99.2374C146.91 99.2802 146.657 99.4639 146.526 99.7288L145.895 101.004L145.264 99.7288L144.815 99.9505L145.264 99.7288C145.132 99.4639 144.88 99.2802 144.587 99.2374Z" fill="#C4C4C4" stroke="white"/>
<path d="M164.64 99.2374L164.567 99.7321L164.64 99.2374L163.87 99.1245L164.64 99.0117L164.567 98.517L164.64 99.0117C164.932 98.9689 165.185 98.7852 165.316 98.5203L165.947 97.2447L166.578 98.5203L167.027 98.2986L166.578 98.5203C166.709 98.7852 166.962 98.9689 167.255 99.0117L167.327 98.517L167.255 99.0117L168.025 99.1245L167.255 99.2374L167.327 99.7321L167.255 99.2374C166.962 99.2802 166.709 99.4639 166.578 99.7288L165.947 101.004L165.316 99.7288L164.868 99.9505L165.316 99.7288C165.185 99.4639 164.932 99.2802 164.64 99.2374Z" fill="#C4C4C4" stroke="white"/>
<path d="M184.693 99.2374L184.62 99.7321L184.693 99.2374L183.922 99.1245L184.693 99.0117L184.62 98.517L184.693 99.0117C184.985 98.9689 185.238 98.7852 185.369 98.5203L186 97.2447L186.631 98.5203L187.079 98.2986L186.631 98.5203C186.762 98.7852 187.015 98.9689 187.307 99.0117L187.38 98.517L187.307 99.0117L188.077 99.1245L187.307 99.2374L187.38 99.7321L187.307 99.2374C187.015 99.2802 186.762 99.4639 186.631 99.7288L186 101.004L185.369 99.7288L184.921 99.9505L185.369 99.7288C185.238 99.4639 184.985 99.2802 184.693 99.2374Z" fill="#C4C4C4" stroke="white"/>
<path d="M4.21898 111.252L4.14649 111.747L4.21897 111.252L3.44889 111.139L4.21897 111.026L4.14649 110.532L4.21898 111.026C4.51138 110.984 4.76411 110.8 4.89516 110.535L5.52631 109.259L6.15747 110.535L6.60561 110.313L6.15747 110.535C6.28852 110.8 6.54125 110.984 6.83365 111.026L6.90614 110.532L6.83366 111.026L7.60373 111.139L6.83366 111.252L6.90614 111.747L6.83365 111.252C6.54125 111.295 6.28852 111.479 6.15747 111.743L5.52631 113.019L4.89516 111.743L4.44702 111.965L4.89516 111.743C4.76411 111.479 4.51137 111.295 4.21898 111.252Z" fill="#C4C4C4" stroke="white"/>
<path d="M24.2716 111.252L24.1991 111.747L24.2716 111.252L23.5015 111.139L24.2716 111.026L24.1991 110.532L24.2716 111.026C24.564 110.984 24.8168 110.8 24.9478 110.535L25.579 109.259L26.2101 110.535L26.6583 110.313L26.2101 110.535C26.3412 110.8 26.5939 110.984 26.8863 111.026L26.9588 110.532L26.8863 111.026L27.6564 111.139L26.8863 111.252L26.9588 111.747L26.8863 111.252C26.5939 111.295 26.3412 111.479 26.2101 111.743L25.579 113.019L24.9478 111.743L24.4997 111.965L24.9478 111.743C24.8168 111.479 24.564 111.295 24.2716 111.252Z" fill="#C4C4C4" stroke="white"/>
<path d="M44.3243 111.252L44.2518 111.747L44.3243 111.252L43.5542 111.139L44.3243 111.026L44.2518 110.532L44.3243 111.026C44.6167 110.984 44.8694 110.8 45.0004 110.535L45.6316 109.259L46.2628 110.535L46.7109 110.313L46.2628 110.535C46.3938 110.8 46.6465 110.984 46.9389 111.026L47.0114 110.532L46.9389 111.026L47.709 111.139L46.9389 111.252L47.0114 111.747L46.9389 111.252C46.6465 111.295 46.3938 111.479 46.2628 111.743L45.6316 113.019L45.0004 111.743L44.5523 111.965L45.0004 111.743C44.8694 111.479 44.6167 111.295 44.3243 111.252Z" fill="#C4C4C4" stroke="white"/>
<path d="M64.3769 111.252L64.3044 111.747L64.3769 111.252L63.6068 111.139L64.3769 111.026L64.3044 110.532L64.3769 111.026C64.6693 110.984 64.922 110.8 65.0531 110.535L65.6842 109.259L66.3154 110.535L66.7635 110.313L66.3154 110.535C66.4464 110.8 66.6992 110.984 66.9916 111.026L67.064 110.532L66.9916 111.026L67.7616 111.139L66.9916 111.252L67.064 111.747L66.9916 111.252C66.6992 111.295 66.4464 111.479 66.3154 111.743L65.6842 113.019L65.0531 111.743L64.6049 111.965L65.0531 111.743C64.922 111.479 64.6693 111.295 64.3769 111.252Z" fill="#C4C4C4" stroke="white"/>
<path d="M84.4295 111.252L84.357 111.747L84.4295 111.252L83.6594 111.139L84.4295 111.026L84.357 110.532L84.4295 111.026C84.7219 110.984 84.9746 110.8 85.1057 110.535L85.7368 109.259L86.368 110.535L86.8161 110.313L86.368 110.535C86.499 110.8 86.7518 110.984 87.0442 111.026L87.1167 110.532L87.0442 111.026L87.8142 111.139L87.0442 111.252L87.1167 111.747L87.0442 111.252C86.7518 111.295 86.499 111.479 86.368 111.743L85.7368 113.019L85.1057 111.743L84.6575 111.965L85.1057 111.743C84.9746 111.479 84.7219 111.295 84.4295 111.252Z" fill="#C4C4C4" stroke="white"/>
<path d="M104.482 111.252L104.41 111.747L104.482 111.252L103.712 111.139L104.482 111.026L104.41 110.532L104.482 111.026C104.774 110.984 105.027 110.8 105.158 110.535L105.789 109.259L106.421 110.535L106.869 110.313L106.421 110.535C106.552 110.8 106.804 110.984 107.097 111.026L107.169 110.532L107.097 111.026L107.867 111.139L107.097 111.252L107.169 111.747L107.097 111.252C106.804 111.295 106.552 111.479 106.421 111.743L105.789 113.019L105.158 111.743L104.71 111.965L105.158 111.743C105.027 111.479 104.774 111.295 104.482 111.252Z" fill="#C4C4C4" stroke="white"/>
<path d="M124.535 111.252L124.462 111.747L124.535 111.252L123.765 111.139L124.535 111.026L124.462 110.532L124.535 111.026C124.827 110.984 125.08 110.8 125.211 110.535L125.842 109.259L126.473 110.535L126.921 110.313L126.473 110.535C126.604 110.8 126.857 110.984 127.149 111.026L127.222 110.532L127.149 111.026L127.919 111.139L127.149 111.252L127.222 111.747L127.149 111.252C126.857 111.295 126.604 111.479 126.473 111.743L125.842 113.019L125.211 111.743L124.763 111.965L125.211 111.743C125.08 111.479 124.827 111.295 124.535 111.252Z" fill="#C4C4C4" stroke="white"/>
<path d="M144.587 111.252L144.515 111.747L144.587 111.252L143.817 111.139L144.587 111.026L144.515 110.532L144.587 111.026C144.88 110.984 145.132 110.8 145.264 110.535L145.895 109.259L146.526 110.535L146.974 110.313L146.526 110.535C146.657 110.8 146.91 110.984 147.202 111.026L147.274 110.532L147.202 111.026L147.972 111.139L147.202 111.252L147.274 111.747L147.202 111.252C146.91 111.295 146.657 111.479 146.526 111.743L145.895 113.019L145.264 111.743L144.815 111.965L145.264 111.743C145.132 111.479 144.88 111.295 144.587 111.252Z" fill="#C4C4C4" stroke="white"/>
<path d="M164.64 111.252L164.567 111.747L164.64 111.252L163.87 111.139L164.64 111.026L164.567 110.532L164.64 111.026C164.932 110.984 165.185 110.8 165.316 110.535L165.947 109.259L166.578 110.535L167.027 110.313L166.578 110.535C166.709 110.8 166.962 110.984 167.255 111.026L167.327 110.532L167.255 111.026L168.025 111.139L167.255 111.252L167.327 111.747L167.255 111.252C166.962 111.295 166.709 111.479 166.578 111.743L165.947 113.019L165.316 111.743L164.868 111.965L165.316 111.743C165.185 111.479 164.932 111.295 164.64 111.252Z" fill="#C4C4C4" stroke="white"/>
<path d="M184.693 111.252L184.62 111.747L184.693 111.252L183.922 111.139L184.693 111.026L184.62 110.532L184.693 111.026C184.985 110.984 185.238 110.8 185.369 110.535L186 109.259L186.631 110.535L187.079 110.313L186.631 110.535C186.762 110.8 187.015 110.984 187.307 111.026L187.38 110.532L187.307 111.026L188.077 111.139L187.307 111.252L187.38 111.747L187.307 111.252C187.015 111.295 186.762 111.479 186.631 111.743L186 113.019L185.369 111.743L184.921 111.965L185.369 111.743C185.238 111.479 184.985 111.295 184.693 111.252Z" fill="#C4C4C4" stroke="white"/>
</svg>
